<svg width="83" height="50" viewBox="0 0 83 50" fill="none" xmlns="http://www.w3.org/2000/svg">
<path d="M5.82301 20.2052V5.98782C5.82301 5.95536 5.83272 5.92422 5.85 5.90126C5.86729 5.8783 5.89072 5.86541 5.91517 5.86541H9.12101C9.52087 5.86541 9.9043 5.65445 10.187 5.27894C10.4697 4.90343 10.6285 4.39414 10.6285 3.86309C10.6285 3.33205 10.4697 2.82274 10.187 2.44724C9.9043 2.07173 9.52087 1.86077 9.12101 1.86077H5.91517C5.50571 1.85847 5.09994 1.96346 4.72107 2.16973C4.34221 2.37599 3.9977 2.67949 3.70725 3.06283C3.41681 3.44618 3.18614 3.90185 3.02845 4.40376C2.87076 4.90568 2.78914 5.44396 2.78829 5.98782V20.2052C2.78626 20.4599 2.71088 20.704 2.57763 20.8872L0.444766 23.7114C0.30385 23.8968 0.19199 24.1174 0.11565 24.3605C0.03931 24.6036 0 24.8645 0 25.1278C0 25.3913 0.03931 25.6522 0.11565 25.8953C0.19199 26.1384 0.30385 26.3591 0.444766 26.5444L2.57763 29.3861C2.71065 29.5624 2.78629 29.801 2.78829 30.0506V44.2679C2.78828 45.3634 3.11543 46.414 3.69794 47.1893C4.28046 47.9647 5.07075 48.4015 5.89542 48.4038H9.10133C9.5011 48.4038 9.88453 48.1928 10.1672 47.8172C10.45 47.4418 10.6088 46.9325 10.6088 46.4015C10.6088 45.8703 10.45 45.3611 10.1672 44.9856C9.88453 44.6101 9.5011 44.3991 9.10133 44.3991H5.89542C5.87039 44.3969 5.84693 44.3821 5.82982 44.3578C5.81269 44.3334 5.80321 44.3013 5.80327 44.2679V30.0506C5.7961 28.7402 5.404 27.4853 4.7105 26.5531L3.64407 25.1366L4.76316 23.7202C5.4478 22.7767 5.82808 21.5155 5.82301 20.2052Z" fill="#1C98F3"/>
<path d="M66.4385 42.0456L44.7006 4.11291C43.7555 2.46363 41.6622 1.89854 40.0251 2.85076C38.3881 3.80297 37.8272 5.9119 38.7723 7.56119L60.5103 45.4939C61.4554 47.1432 63.5487 47.7083 65.1857 46.7561C66.8228 45.8039 67.3837 43.6949 66.4385 42.0456Z" fill="white"/>
<path d="M63.5869 40.7818H37.9168C36.0265 40.7818 34.4941 42.3257 34.4941 44.2301C34.4941 46.1345 36.0265 47.6784 37.9168 47.6784H63.5869C65.4772 47.6784 67.0096 46.1345 67.0096 44.2301C67.0096 42.3257 65.4772 40.7818 63.5869 40.7818Z" fill="white"/>
<path d="M38.01 4.1461L15.7626 42.9679C14.8175 44.6172 15.3784 46.7261 17.0154 47.6784C18.6524 48.6306 20.7457 48.0655 21.6909 46.4162L43.9383 7.59438C44.8834 5.94509 44.3225 3.83616 42.6855 2.88394C41.0485 1.93173 38.9552 2.49682 38.01 4.1461Z" fill="white"/>
<path d="M54.896 3.41661L32.4772 42.5376C31.2959 44.5988 31.9969 47.2345 34.0428 48.4245C36.0887 49.6145 38.7047 48.9083 39.886 46.8472L62.3049 7.72609C63.486 5.6649 62.7851 3.02926 60.7392 1.83923C58.6933 0.649196 56.0772 1.35541 54.896 3.41661Z" fill="#1C98F3"/>
<path d="M81.7367 23.7114L79.6039 20.8784C79.4699 20.6994 79.3942 20.4576 79.3932 20.2051V5.98778C79.3915 4.89393 79.0635 3.84554 78.4813 3.07207C77.8989 2.2986 77.1096 1.86304 76.2861 1.86073H73.0802C72.8823 1.86073 72.6862 1.91253 72.5033 2.01315C72.3204 2.11378 72.1543 2.26127 72.0143 2.4472C71.8743 2.63313 71.7632 2.85386 71.6875 3.0968C71.6117 3.33973 71.5728 3.6001 71.5728 3.86305C71.5728 4.126 71.6117 4.38637 71.6875 4.6293C71.7632 4.87224 71.8743 5.09297 72.0143 5.27891C72.1543 5.46484 72.3204 5.61233 72.5033 5.71295C72.6862 5.81358 72.8823 5.86537 73.0802 5.86537H76.2861C76.3105 5.86537 76.334 5.87827 76.3512 5.90122C76.3685 5.92418 76.3783 5.95532 76.3783 5.98778V20.2051C76.3854 21.5156 76.7775 22.7705 77.4711 23.7026L78.5375 25.1103L77.4776 26.5443C76.7841 27.4765 76.392 28.7314 76.3849 30.0418V44.2679C76.3849 44.3012 76.3754 44.3334 76.3583 44.3577C76.3411 44.3821 76.3177 44.3968 76.2927 44.399H73.0868C72.687 44.399 72.3036 44.61 72.0209 44.9855C71.7382 45.361 71.5793 45.8703 71.5793 46.4014C71.5793 46.9324 71.7382 47.4417 72.0209 47.8172C72.3036 48.1928 72.687 48.4037 73.0868 48.4037H76.2927C77.1173 48.4014 77.9076 47.9647 78.4902 47.1893C79.0727 46.4139 79.3998 45.3633 79.3998 44.2679V30.0506C79.4035 29.7989 79.4788 29.5584 79.6105 29.3773L81.7433 26.5443C81.8838 26.3584 81.9952 26.1373 82.071 25.8939C82.1467 25.6504 82.1855 25.3895 82.1848 25.126C82.1842 24.8626 82.1443 24.602 82.0674 24.3591C81.9905 24.1163 81.8781 23.8961 81.7367 23.7114Z" fill="#1C98F3"/>
</svg>
